<!--?xml version="1.0" standalone="no"?-->
              <svg id="sw-js-blob-svg" viewBox="0 0 100 100" xmlns="http://www.w3.org/2000/svg" version="1.1">
                    <defs> 
                        <linearGradient id="sw-gradient" x1="0" x2="1" y1="1" y2="0">
                            <stop id="stop1" stop-color="rgba(248, 160.273, 55, 1)" offset="0%"></stop>
                            <stop id="stop2" stop-color="rgba(251, 247.149, 31, 1)" offset="100%"></stop>
                        </linearGradient>
                    </defs>
                <path fill="url(#sw-gradient)" d="M15.6,-14.6C22.8,-12.5,33.1,-10.1,33.2,-6.3C33.4,-2.5,23.3,2.6,17.3,7.2C11.3,11.8,9.3,15.9,6,17.5C2.7,19.1,-1.8,18.3,-8.1,17.9C-14.5,17.5,-22.6,17.7,-27.7,13.7C-32.7,9.7,-34.7,1.6,-32.3,-4.5C-29.8,-10.6,-22.8,-14.7,-16.7,-17.1C-10.6,-19.5,-5.3,-20.1,-0.6,-19.4C4.2,-18.8,8.3,-16.8,15.6,-14.6Z" width="100%" height="100%" transform="translate(50 50)" stroke-width="0" style="transition: all 0.3s ease 0s;"></path>
              </svg>